name Walk9.mot
datacolumns 19
datarows 17
range 3.57000000 3.58600000
endheader

                time	   L_ground_force_vx	   L_ground_force_vy	   L_ground_force_vz	   L_ground_force_px	   L_ground_force_py	   L_ground_force_pz	   R_ground_force_vx	   R_ground_force_vy	   R_ground_force_vz	   R_ground_force_px	   R_ground_force_py	   R_ground_force_pz	   L_ground_torque_x	   L_ground_torque_y	   L_ground_torque_z	   R_ground_torque_x	   R_ground_torque_y	   R_ground_torque_z	
          3.57000000	         20.13607697	        742.53758665	         37.95184963	         -0.13621170	          0.00000000	         -0.04965955	         -0.01243314	          0.23972435	          0.00200681	          0.00037928	          0.00000000	          0.00010372	          0.00000000	          1.40609251	          0.00000000	          0.00000000	          0.00230268	          0.00000000	
          3.57100000	         20.91988526	        744.41053006	         38.15804936	         -0.13596618	          0.00000000	         -0.04970436	         -0.01386523	          0.25292648	          0.00215453	          0.00039427	          0.00000000	          0.00010770	          0.00000000	          1.40129610	          0.00000000	          0.00000000	          0.00256096	          0.00000000	
          3.57200000	         21.71305341	        746.29301878	         38.36268925	         -0.13572582	          0.00000000	         -0.04974801	         -0.01537314	          0.26631086	          0.00230708	          0.00040902	          0.00000000	          0.00011161	          0.00000000	          1.39638907	          0.00000000	          0.00000000	          0.00283267	          0.00000000	
          3.57300000	         22.51543158	        748.18472890	         38.56555554	         -0.13549057	          0.00000000	         -0.04979047	         -0.01695768	          0.27983914	          0.00246427	          0.00042345	          0.00000000	          0.00011542	          0.00000000	          1.39135941	          0.00000000	          0.00000000	          0.00311793	          0.00000000	
          3.57400000	         23.32686690	        750.08533151	         38.76643275	         -0.13526036	          0.00000000	         -0.04983171	         -0.01861943	          0.29346882	          0.00262590	          0.00043747	          0.00000000	          0.00011911	          0.00000000	          1.38619277	          0.00000000	          0.00000000	          0.00341682	          0.00000000	
          3.57500000	         24.14720437	        751.99449589	         38.96510608	         -0.13503516	          0.00000000	         -0.04987171	         -0.02035870	          0.30715304	          0.00279170	          0.00045099	          0.00000000	          0.00012265	          0.00000000	          1.38087322	          0.00000000	          0.00000000	          0.00372938	          0.00000000	
          3.57600000	         24.97628807	        753.91189327	         39.16136384	         -0.13481489	          0.00000000	         -0.04991046	         -0.02217551	          0.32084036	          0.00296138	          0.00046390	          0.00000000	          0.00012600	          0.00000000	          1.37538422	          0.00000000	          0.00000000	          0.00405557	          0.00000000	
          3.57700000	         25.81396290	        755.83720027	         39.35499957	         -0.13459951	          0.00000000	         -0.04994793	         -0.02406957	          0.33447453	          0.00313460	          0.00047610	          0.00000000	          0.00012916	          0.00000000	          1.36970958	          0.00000000	          0.00000000	          0.00439533	          0.00000000	
          3.57800000	         26.66007635	        757.77010075	         39.54581386	         -0.13438894	          0.00000000	         -0.04998412	         -0.02604022	          0.34799430	          0.00331097	          0.00048746	          0.00000000	          0.00013207	          0.00000000	          1.36383427	          0.00000000	          0.00000000	          0.00474851	          0.00000000	
          3.57900000	         27.51448030	        759.71028568	         39.73361585	         -0.13418314	          0.00000000	         -0.05001901	         -0.02808646	          0.36133322	          0.00349005	          0.00049787	          0.00000000	          0.00013470	          0.00000000	          1.35774476	          0.00000000	          0.00000000	          0.00511490	          0.00000000	
          3.58000000	         28.37703255	        761.65745110	         39.91822445	         -0.13398201	          0.00000000	         -0.05005258	         -0.03020685	          0.37441938	          0.00367136	          0.00050718	          0.00000000	          0.00013703	          0.00000000	          1.35142896	          0.00000000	          0.00000000	          0.00549421	          0.00000000	
          3.58100000	         29.24759785	        763.61129453	         40.09946928	         -0.13378550	          0.00000000	         -0.05008484	         -0.03239953	          0.38717525	          0.00385436	          0.00051527	          0.00000000	          0.00013900	          0.00000000	          1.34487582	          0.00000000	          0.00000000	          0.00588607	          0.00000000	
          3.58200000	         30.12604837	        765.57151009	         40.27719116	         -0.13359353	          0.00000000	         -0.05011577	         -0.03466215	          0.39951747	          0.00403844	          0.00052198	          0.00000000	          0.00014059	          0.00000000	          1.33807478	          0.00000000	          0.00000000	          0.00629004	          0.00000000	
          3.58300000	         31.01226345	        767.53778315	         40.45124243	         -0.13340600	          0.00000000	         -0.05014537	         -0.03699187	          0.41135661	          0.00422295	          0.00052716	          0.00000000	          0.00014174	          0.00000000	          1.33101535	          0.00000000	          0.00000000	          0.00670558	          0.00000000	
          3.58400000	         31.90612883	        769.50978541	         40.62148700	         -0.13322285	          0.00000000	         -0.05017366	         -0.03938531	          0.42259705	          0.00440716	          0.00053065	          0.00000000	          0.00014241	          0.00000000	          1.32368690	          0.00000000	          0.00000000	          0.00713203	          0.00000000	
          3.58500000	         32.80753568	        771.48717132	         40.78780049	         -0.13304398	          0.00000000	         -0.05020064	         -0.04183851	          0.43313671	          0.00459030	          0.00053226	          0.00000000	          0.00014256	          0.00000000	          1.31607867	          0.00000000	          0.00000000	          0.00756866	          0.00000000	
          3.58600000	         33.71637941	        773.46957670	         40.95007040	         -0.13286931	          0.00000000	         -0.05022631	         -0.04434688	          0.44286696	          0.00477149	          0.00053183	          0.00000000	          0.00014213	          0.00000000	          1.30817987	          0.00000000	          0.00000000	          0.00801460	          0.00000000	
